<?xml version="1.0" encoding="UTF-8"?>
<svg id="Layer_1" data-name="Layer 1" xmlns="http://www.w3.org/2000/svg" viewBox="0 0 636.14 193.86">
  <defs>
    <style>
      .cls-1 {
        fill: #204c8a;
      }

      .cls-2 {
        fill: #7dbbe9;
      }

      .cls-3 {
        fill: #272525;
      }
    </style>
  </defs>
  <g>
    <path class="cls-1" d="m207.51,8.15h6.45v15.25h17.51v-15.25h6.45v36.69h-6.45v-15.46h-17.51v15.46h-6.45V8.15Z"/>
    <path class="cls-1" d="m242.76,39.49l3.88-4.61c3.51,3.04,7.08,4.77,11.58,4.77,3.98,0,6.5-1.89,6.5-4.61v-.1c0-2.62-1.47-4.04-8.28-5.61-7.81-1.89-12.21-4.19-12.21-10.95v-.11c0-6.29,5.24-10.64,12.53-10.64,5.35,0,9.59,1.62,13.31,4.61l-3.46,4.87c-3.3-2.46-6.6-3.77-9.96-3.77-3.77,0-5.98,1.94-5.98,4.35v.1c0,2.83,1.68,4.09,8.75,5.77,7.76,1.89,11.74,4.66,11.74,10.74v.1c0,6.87-5.4,10.95-13.1,10.95-5.61,0-10.9-1.94-15.3-5.87Z"/>
    <path class="cls-1" d="m276.65,8.15h6.45v15.25h17.51v-15.25h6.45v36.69h-6.45v-15.46h-17.51v15.46h-6.45V8.15Z"/>
    <path class="cls-1" d="m311.9,39.49l3.88-4.61c3.51,3.04,7.08,4.77,11.58,4.77,3.98,0,6.5-1.89,6.5-4.61v-.1c0-2.62-1.47-4.04-8.28-5.61-7.81-1.89-12.21-4.19-12.21-10.95v-.11c0-6.29,5.24-10.64,12.53-10.64,5.35,0,9.59,1.62,13.31,4.61l-3.46,4.87c-3.3-2.46-6.6-3.77-9.96-3.77-3.77,0-5.97,1.94-5.97,4.35v.1c0,2.83,1.68,4.09,8.75,5.77,7.76,1.89,11.74,4.66,11.74,10.74v.1c0,6.87-5.4,10.95-13.1,10.95-5.61,0-10.9-1.94-15.3-5.87Z"/>
    <path class="cls-1" d="m205.84,104.93l5.26-6.26c4.76,4.12,9.6,6.47,15.71,6.47,5.4,0,8.81-2.56,8.81-6.26v-.14c0-3.56-1.99-5.47-11.23-7.61-10.59-2.56-16.56-5.69-16.56-14.86v-.14c0-8.53,7.11-14.43,16.99-14.43,7.25,0,13.01,2.2,18.05,6.25l-4.69,6.61c-4.48-3.34-8.96-5.12-13.5-5.12-5.12,0-8.1,2.63-8.1,5.9v.14c0,3.84,2.27,5.54,11.87,7.82,10.52,2.56,15.92,6.33,15.92,14.57v.14c0,9.31-7.32,14.86-17.77,14.86-7.61,0-14.79-2.63-20.76-7.96Z"/>
    <path class="cls-1" d="m247.64,101.37v-.14c0-8.1,6.33-12.09,15.5-12.09,4.19,0,7.18.64,10.09,1.56v-.92c0-5.33-3.27-8.18-9.31-8.18-4.19,0-7.32.92-10.73,2.35l-2.27-6.75c4.12-1.85,8.17-3.06,14.15-3.06,5.61,0,9.81,1.49,12.44,4.19,2.77,2.7,4.05,6.68,4.05,11.58v22.25h-8.39v-4.69c-2.56,3.05-6.47,5.47-12.22,5.47-7.04,0-13.29-4.06-13.29-11.59Zm25.73-2.7v-2.56c-2.2-.85-5.12-1.49-8.53-1.49-5.54,0-8.81,2.35-8.81,6.25v.15c0,3.62,3.2,5.69,7.32,5.69,5.69,0,10.02-3.27,10.02-8.03Z"/>
    <path class="cls-1" d="m286.6,93.63v-.14c0-10.66,8.25-19.62,19.55-19.62,7.04,0,11.44,2.63,15,6.47l-5.4,5.76c-2.63-2.77-5.4-4.69-9.67-4.69-6.25,0-10.87,5.4-10.87,11.94v.14c0,6.68,4.62,12.01,11.23,12.01,4.05,0,7.04-1.84,9.74-4.62l5.19,5.12c-3.7,4.12-8.03,7.03-15.35,7.03-11.16,0-19.41-8.74-19.41-19.4Z"/>
    <path class="cls-1" d="m327.12,74.65h8.6v8.46c2.35-5.61,6.68-9.45,13.29-9.17v9.1h-.5c-7.53,0-12.8,4.91-12.8,14.86v14.29h-8.6v-37.53Z"/>
    <path class="cls-1" d="m351.01,93.56v-.14c0-10.73,7.61-19.55,18.34-19.55,11.94,0,17.98,9.38,17.98,20.19,0,.78-.07,1.56-.14,2.42h-27.58c.92,6.11,5.26,9.53,10.8,9.53,4.19,0,7.18-1.56,10.16-4.48l5.05,4.48c-3.56,4.26-8.46,7.03-15.35,7.03-10.87,0-19.26-7.89-19.26-19.47Zm27.79-2.77c-.57-5.54-3.84-9.88-9.52-9.88-5.26,0-8.96,4.05-9.74,9.88h19.26Z"/>
    <path class="cls-1" d="m391.6,93.49v-.14c0-12.44,8.46-19.47,17.41-19.47,6.19,0,10.1,3.05,12.8,6.61v-20.19h8.6v51.89h-8.6v-6.26c-2.77,3.91-6.68,7.04-12.8,7.04-8.81,0-17.41-7.04-17.41-19.48Zm30.35,0v-.14c0-7.25-5.12-12.01-10.88-12.01s-10.8,4.55-10.8,12.01v.14c0,7.25,4.98,12.01,10.8,12.01s10.88-4.83,10.88-12.01Z"/>
    <path class="cls-1" d="m459.27,62.43h8.74v20.68h23.74v-20.68h8.74v49.76h-8.74v-20.97h-23.74v20.97h-8.74v-49.76Z"/>
    <path class="cls-1" d="m505.27,93.56v-.14c0-10.73,7.61-19.55,18.34-19.55,11.94,0,17.98,9.38,17.98,20.19,0,.78-.07,1.56-.14,2.42h-27.58c.92,6.11,5.26,9.53,10.8,9.53,4.19,0,7.18-1.56,10.16-4.48l5.05,4.48c-3.56,4.26-8.46,7.03-15.35,7.03-10.87,0-19.26-7.89-19.26-19.47Zm27.79-2.77c-.57-5.54-3.84-9.88-9.52-9.88-5.26,0-8.96,4.05-9.74,9.88h19.26Z"/>
    <path class="cls-1" d="m544.94,101.37v-.14c0-8.1,6.32-12.09,15.49-12.09,4.19,0,7.18.64,10.1,1.56v-.92c0-5.33-3.27-8.18-9.31-8.18-4.19,0-7.32.92-10.73,2.35l-2.28-6.75c4.13-1.85,8.18-3.06,14.15-3.06,5.61,0,9.81,1.49,12.44,4.19,2.77,2.7,4.05,6.68,4.05,11.58v22.25h-8.39v-4.69c-2.56,3.05-6.47,5.47-12.23,5.47-7.04,0-13.29-4.06-13.29-11.59Zm25.73-2.7v-2.56c-2.2-.85-5.12-1.49-8.53-1.49-5.54,0-8.81,2.35-8.81,6.25v.15c0,3.62,3.2,5.69,7.32,5.69,5.69,0,10.02-3.27,10.02-8.03Z"/>
    <path class="cls-1" d="m585.6,74.65h8.6v8.46c2.35-5.61,6.68-9.45,13.29-9.17v9.1h-.5c-7.53,0-12.8,4.91-12.8,14.86v14.29h-8.6v-37.53Z"/>
    <path class="cls-1" d="m617.44,101.8v-19.76h-4.76v-7.39h4.76v-10.31h8.6v10.31h10.09v7.39h-10.09v18.41c0,3.34,1.7,4.69,4.62,4.69,1.92,0,3.62-.43,5.33-1.28v7.04c-2.13,1.21-4.48,1.91-7.75,1.91-6.33,0-10.8-2.77-10.8-11.01Z"/>
    <path class="cls-1" d="m207.51,127.87h6.45v15.25h17.51v-15.25h6.45v36.69h-6.45v-15.46h-17.51v15.46h-6.45v-36.69Z"/>
    <path class="cls-1" d="m242.7,150.88v-.1c0-7.91,6.29-14.47,14.78-14.47s14.73,6.45,14.73,14.36v.11c0,7.86-6.29,14.41-14.83,14.41s-14.68-6.45-14.68-14.31Zm23.17,0v-.1c0-4.87-3.51-8.92-8.49-8.92s-8.33,3.98-8.33,8.81v.11c0,4.82,3.51,8.86,8.44,8.86s8.39-3.98,8.39-8.75Z"/>
    <path class="cls-1" d="m274.29,160.94l2.83-4.3c3.04,2.25,6.24,3.41,9.07,3.41s4.3-1.15,4.3-2.99v-.1c0-2.15-2.94-2.89-6.19-3.88-4.09-1.15-8.65-2.83-8.65-8.13v-.1c0-5.24,4.35-8.44,9.85-8.44,3.46,0,7.23,1.21,10.17,3.15l-2.52,4.51c-2.67-1.63-5.5-2.62-7.81-2.62-2.46,0-3.88,1.15-3.88,2.73v.1c0,2.05,2.99,2.89,6.24,3.93,4.04,1.26,8.6,3.09,8.6,8.07v.1c0,5.82-4.51,8.7-10.27,8.7-3.93,0-8.28-1.41-11.74-4.14Z"/>
    <path class="cls-1" d="m300.69,136.89h6.34v4.61c2.04-2.88,4.93-5.19,9.43-5.19,6.5,0,12.84,5.14,12.84,14.36v.11c0,9.17-6.29,14.36-12.84,14.36-4.61,0-7.5-2.31-9.43-4.87v12.68h-6.34v-36.06Zm22.17,13.89v-.11c0-5.34-3.62-8.86-7.91-8.86s-8.07,3.57-8.07,8.86v.11c0,5.29,3.77,8.86,8.07,8.86s7.91-3.41,7.91-8.86Z"/>
    <path class="cls-1" d="m333.58,126.61h6.81v6.03h-6.81v-6.03Zm.26,10.27h6.34v27.67h-6.34v-27.67Z"/>
    <path class="cls-1" d="m348.2,156.91v-14.57h-3.51v-5.45h3.51v-7.6h6.34v7.6h7.44v5.45h-7.44v13.57c0,2.46,1.26,3.46,3.41,3.46,1.41,0,2.67-.31,3.93-.94v5.19c-1.57.89-3.3,1.41-5.71,1.41-4.67,0-7.97-2.04-7.97-8.12Z"/>
    <path class="cls-1" d="m365.27,156.6v-.11c0-5.97,4.67-8.91,11.43-8.91,3.09,0,5.29.48,7.44,1.15v-.68c0-3.93-2.41-6.03-6.87-6.03-3.09,0-5.4.68-7.91,1.73l-1.68-4.98c3.04-1.36,6.03-2.25,10.43-2.25,4.14,0,7.23,1.1,9.17,3.09,2.05,1.99,2.99,4.93,2.99,8.54v16.41h-6.19v-3.46c-1.89,2.26-4.77,4.04-9.01,4.04-5.19,0-9.8-2.99-9.8-8.54Zm18.97-1.99v-1.89c-1.63-.63-3.77-1.1-6.29-1.1-4.09,0-6.5,1.73-6.5,4.61v.11c0,2.67,2.36,4.19,5.4,4.19,4.19,0,7.39-2.41,7.39-5.93Z"/>
    <path class="cls-1" d="m395.87,126.3h6.34v38.26h-6.34v-38.26Z"/>
  </g>
  <path class="cls-2" d="m177.12,82.82c-.14-1.3-.3-2.59-.51-3.88-36.46-12.42-55.76-14.16-71.57-14.45h0s0,.05,0,.05c-.01.2-.15,2.6-.22,6.84-.19,14.41.57,50.1,10.44,92.9,3.56-1.86,7.02-3.89,10.35-6.09-5.11-16.75-12.61-47.37-14.11-86.33,30.72,2.99,61.37,15.59,65.9,17.52,0-2.39-.09-4.64-.28-6.55"/>
  <path class="cls-1" d="m179.61,74.39C176.54,32.13,143,1.22,100.1,3.6c-9.68.54-21.59,3.16-31.34,7.13-3.5,1.42-3.24,2.14.48,1.1,8.26-2.32,17.97-3.7,25.28-4.07,39.24-1.82,75.93,31.29,82.1,71.17.2,1.29.37,2.57.51,3.88.2,1.91.28,4.16.28,6.55,0,2.02-.04,4.11-.15,6.23-.26,5.09.79,5.19,1.48.16.99-7.32,1.31-15.17.87-21.37"/>
  <path class="cls-1" d="m97.3,171.93c-3.04.56-2.27,1.47.89,1.07,6.29-.79,12.38-2.14,18.19-4,3.9-1.24,7.66-2.73,11.27-4.43,25.26-11.84,42.61-34.12,42.25-61.36-.03-1.58-.03-4.07-.09-6.49-.06-2.06-.97-1.83-1.34-.09-5.7,26.95-21.74,47.65-42.85,61.57-3.33,2.2-6.79,4.24-10.35,6.09-5.74,2.99-11.76,5.56-17.96,7.65"/>
  <path class="cls-2" d="m17.99,38.52s55.23,20.83,145.99-27.17l-1.5,5.79S103.69,63.45,10.57,50.66l7.43-12.15Z"/>
  <path class="cls-2" d="m76.21,65.29c-27.61,2.02-71.48,20.01-71.48,20.01l.47,2.13c24.79-7.73,55.74-12.33,71.65-13.14l-.64-9Z"/>
  <path class="cls-1" d="m94.1,163.71c-49.5,5.43-81.6-36.18-84.62-74.72C6.43,49.98,32.26,11.11,70.5,1.1c3.31-.87,1.85-1.33-.35-.99C27.86,6.66-2.97,45.37.23,89.6c3.19,44.06,41.05,87.33,93.75,75.83,2.96-.64,3.08-2.05.13-1.73"/>
  <path class="cls-2" d="m51.36,181.39s17.97-43.47,19.19-107.53l6.24-.31c-.18.34,3.37,54.96-15.54,120.31l-9.89-12.47Z"/>
  <path class="cls-3" d="m42.66,171.31c0,3.33-2.61,5.94-6.01,5.94s-6.05-2.61-6.05-5.94,2.68-5.87,6.05-5.87,6.01,2.61,6.01,5.87Zm-10.55,0c0,2.61,1.93,4.69,4.58,4.69s4.47-2.07,4.47-4.65-1.9-4.72-4.51-4.72-4.54,2.11-4.54,4.68Zm3.61,3.08h-1.36v-5.87c.54-.11,1.29-.18,2.25-.18,1.11,0,1.61.18,2.04.43.32.25.57.71.57,1.29,0,.64-.5,1.14-1.22,1.36v.07c.57.22.89.64,1.07,1.43.18.89.29,1.25.43,1.47h-1.47c-.18-.22-.29-.75-.46-1.43-.11-.64-.47-.93-1.22-.93h-.64v2.36Zm.03-3.33h.64c.75,0,1.36-.25,1.36-.86,0-.54-.39-.89-1.25-.89-.36,0-.61.04-.75.07v1.68Z"/>
</svg>